<svg xmlns="http://www.w3.org/2000/svg" viewBox="0 0 691.74786 320.34429"><title>footer-wing</title><path d="M505.69292,233.01559c-1.57826,2.34-3.178,4.66882-4.73206,7.02407a136.947,136.947,0,0,1-25.36848,29.35277c-12.08829,10.28937-25.60656,17.66449-41.54928,19.84978-12.98458,1.7793-25.32565-.33656-36.6286-7.09744-16.01356-9.57845-23.20755-24.30535-23.92675-42.49171-.78621-19.88173,6.73091-35.91844,22.78979-47.84027,1.146-.8479,2.19095-1.83226,3.2503-2.78585.19853-.177.26087-.5083.58892-1.19142-6.71311-9.70537-16.46665-11.1697-27.90877-9.48339-1.825-6.23747-1.996-13.01691-6.11573-18.44924-3.84339-5.06435-7.90342-9.81541-13.6928-13.59669-4.48109,3.49209-6.47962,8.20928-8.59387,12.85934-.69919,1.53929-1.54139,3.017-2.37053,4.49347-.10984.1856-.52514.19705-1.24079.43627-.73968-2.39752-1.51326-4.77878-2.20952-7.18305-2.599-8.95632-7.69512-16.29963-15.57578-21.10634-16.05843-9.79413-33.52125-13.52592-52.217-10.23781a25.44137,25.44137,0,0,0-7.289,2.53255,14.71286,14.71286,0,0,0-4.44586,3.95071c-1.76169,2.22625-1.56552,5.59719.05705,7.19823,1.53108,1.51113,5.1073,1.64319,7.30517.13983a11.20435,11.20435,0,0,0,2.51724-2.34719c3.99243-5.16935,9.64377-6.12632,15.54222-5.7682,13.75434.82914,29.45081,14.76753,32.46542,28.5757.09447.43665-.37651.99814-.73859,1.87281-3.70363-1.97581-5.385-5.95-8.50563-8.34921a109.11461,109.11461,0,0,0-8.98683-6.70641c-3.38919-2.08967-7.06753-3.76267-11.98958-3.519.41264,1.57912.64774,2.85552,1.07871,4.063a33.1706,33.1706,0,0,1,1.73394,17.8395c-2.86287,14.58708-1.5773,28.66687,4.97963,42.14255a12.22129,12.22129,0,0,1,.5017,2.909c-3.38106.77562-5.33769-1.97073-7.87875-2.80318-2.73322-.89355-5.34216-2.23139-8.11972-2.90788a77.707,77.707,0,0,0-8.793-1.13485c-.58956,1.70427-1.34753,2.968-1.44276,4.27831-1.17267,16.2167-.13193,32.24809,4.28943,47.97364,5.13869,18.28316,15.81291,32.447,31.68951,42.78961,13.22493,8.61387,27.91249,13.64567,43.03867,17.52529a157.77382,157.77382,0,0,0,22.21274,4.02412c-2.62657-1.21054-5.212-2.51814-7.88355-3.61583-22.85092-9.3914-42.067-23.7404-58.115-42.43416a44.76444,44.76444,0,0,1-3.10646-4.13447c-.26784-.39659-.16591-1.04642-.24142-1.63533,1.62774-1.21149,2.66532.21586,3.67341.99757,5.92139,4.59351,11.62188,9.48608,17.68274,13.88252,20.23083,14.67627,42.09162,26.11672,66.34368,32.626,4.44558,1.193,8.96389,2.14346,13.47716,3.07555,4.36075.89815,8.58261.616,12.46285-1.99378-.11943-2.32416-1.9914-1.61625-3.10332-1.78931a142.386,142.386,0,0,1-75.92259-36.69473c-12.87378-11.85716-23.23564-25.594-29.70578-42.02621-1.58285-4.01909-1.61035-4.299-1.45335-9.00887,2.61353.21017,2.73222,2.60643,3.60866,4.22372A135.26828,135.26828,0,0,0,341.796,272.90192a140.68189,140.68189,0,0,0,58.7904,28.07278c26.82663,5.8129,50.87391-.19675,71.38279-18.99709,11.15639-10.22569,20.17336-22.13043,28.13733-34.89735,2.1344-3.42092,4.22058-6.87741,6.21308-10.38183a12.996,12.996,0,0,0,.86181-3.08548C506.68414,233.40976,506.1895,233.21272,505.69292,233.01559Z" fill="none" stroke="#333" stroke-miterlimit="4.00141" stroke-width="1.00035"/><path d="M171.69621,93.52533c-2.699.21912-4.47117-1.35565-6.4285-2.318a84.28412,84.28412,0,0,0-20.29249-7.19874c-20.11984-4.12653-36.29342,2.282-49.09681,17.95837a73.09655,73.09655,0,0,0-4.43911,6.3802,11.95863,11.95863,0,0,0-.902,2.31908c.64049.28076,1.16355.73972,1.58347.6584,10.383-1.98884,17.72748,2.93919,23.9914,10.42044,3.87975,4.6355,7.57887,9.44992,11.76018,13.7956,5.261,5.46469,11.3864,9.73726,19.1069,11.15487.44554.08129.79407.69846,1.5198,1.38133-1.48725,3.40051-5.05622,5.2462-7.01735,8.34056-1.99365,3.14176-4.40153,6.08164-4.88662,9.89694,1.3118,1.74013,2.66265.51725,3.895.22278,2.79868-.67171,5.51813-1.76526,8.34339-2.19719,12.1343-1.85963,22.25434,1.60815,29.49448,11.88889,2.32078,3.2942,4.29952,6.828,6.46226,10.23322,7.57445,11.9209,14.82483,24.06336,22.81482,35.69937,13.44835,19.58219,29.137,37.21246,47.795,52.0643,11.32964,9.0191,23.03378,16.19349,33.64295,20.48311-1.99446-2.80844-4.57738-3.8955-6.70283-5.45761-25.3484-18.58585-43.85291-42.33387-54.22633-72.12869-3.99022-11.46186-6.10511-23.368-7.60749-35.41866-1.42389-11.42244-3.09264-22.83561-5.22668-34.14376a145.29132,145.29132,0,0,0-11.12657-33.56938C188.72244,80.33961,163.44983,57.218,129.071,43.82871c-14.05947-5.4749-28.42553-9.29292-43.65148-9.65873-19.0199-.45211-35.85524,5.1987-50.16354,17.64841C18.22282,66.63954,6.97638,85.13866,2.09826,107.24683.2273,115.72906-.2638,124.3943,2.062,132.96076a33.99008,33.99008,0,0,0,10.81715,17.34465c2.22854,1.91006,4.60909,3.65173,7.784,2.83331,3.511-.90411,5.06929-3.4765,5.46411-6.82771-.29905-.60558-.41616-1.377-.81376-1.571-8.10187-3.94373-11.4049-11.15264-12.81468-19.38192-2.26126-13.213,3.74455-29.94745,14.42068-40.43455.50143,3.3758-1.75626,5.50913-2.42237,8.04883-.65693,2.49812-1.72612,4.89165-2.33152,7.40046a54.28864,54.28864,0,0,0-1.46332,8.48342c-.19232,2.48224-.94837,5.2106,1.56423,7.64831,8.93-6.55714,19.60668-9.1077,29.95972-12.48346,4.37345-1.42417,8.67042-3.12978,12.90157-4.938A43.11526,43.11526,0,0,0,79.81313,88.62842c15.59776-16.76505,34.97626-22.72123,57.276-19.19345,14.34556,2.26831,25.53933,10.0873,34.207,21.59831C171.69693,91.58707,171.54619,92.55889,171.69621,93.52533ZM138.44252,58.17412l1.56031.6031-1.40015-.77407c-2.2743-.31872-4.58246-.48794-6.8188-.978C119.92636,54.4336,107.99472,52.57241,95.8116,53.561c-7.44413.6052-14.87069,1.50783-22.3114,2.20137-2.18721.20169-4.36191,1.20239-6.77377.50487.48392-.73311.6893-1.44565,1.11749-1.6277,22.70292-9.62669,45.33113-9.33134,67.86189.61036,1.29915.57851,2.65565,1.191,2.73458,2.9271ZM214.95419,211.2187c-1.23058-.52985-2.88281-.73305-3.60887-1.66036a36.55276,36.55276,0,0,1-3.9766-6.662c-6.26662-12.97173-12.40258-26.00979-18.68345-38.97727-4.14452-8.55493-8.237-17.14724-12.75734-25.50637a72.77466,72.77466,0,0,0-20.62-24.15465c-.98568-.73146-1.70115-1.8235-3.88687-4.22918,3.23029.98553,4.59,1.24764,5.82342,1.79967,14.3143,6.40974,24.57758,16.941,30.9922,31.14853,2.84177,6.2944,5.18665,12.82037,7.61028,19.29633,5.14036,13.76757,10.13466,27.58862,15.31175,41.34308a78.26485,78.26485,0,0,0,3.82,7.61146" fill="none" stroke="#333" stroke-miterlimit="4.00141" stroke-width="1.00035"/><path d="M593.60392,160.96c9.53951-2.18,20.8381-9.17182,27.25766-16.689a28.73138,28.73138,0,0,0,3.55877-4.86337c3.0619-5.67056,5.14362-11.54438,3.303-18.17433-.67465-2.43419-.92148-4.98637-1.47911-8.14875,1.81187.04222,3.23355-.2504,4.41767.15181,8.941,3.0448,15.7347-.383,21.4065-7.02462,2.04167-2.39,3.72674-5.088,5.64488-7.74186a36.32409,36.32409,0,0,1,4.1614-1.04555c6.494-.864,9.22758-5.27048,10.38384-11.04926a30.09892,30.09892,0,0,0,.62288-6.86632c-.8554-25.63412,6.41954-49.43064,16.287-72.65145.86411-2.03257,2.2293-3.91684,2.06582-6.35649a6.51161,6.51161,0,0,0-1.95659.27379c-27.8466,15.37921-51.86442,35.14083-70.20938,61.38428a140.19611,140.19611,0,0,0-23.33276,57.02073C594.56174,125.894,593.047,154.84059,593.60392,160.96ZM650.62246,46.35258c1.1088,1.67546.042,2.52149-.524,3.3695-2.39105,3.59789-4.91177,7.10887-7.31631,10.697-11.74337,17.51963-21.98874,35.81841-28.656,55.94626a18.5709,18.5709,0,0,1-2.23083,4.638c-.53512.7735-1.732,1.09787-2.86646,1.762-.379-1.32193-.86444-2.15559-.78828-2.927a30.84909,30.84909,0,0,1,1.08916-6.799,153.58884,153.58884,0,0,1,6.045-16.15842c8.36008-17.875,19.7325-33.77217,32.75339-48.5257a18.53526,18.53526,0,0,1,2.49534-2.00271Z" fill="none" stroke="#333" stroke-miterlimit="4.00141" stroke-width="1.00035"/><path d="M544.595,108.81646c-3.42967,4.30712-5.64652,6.90636-7.65789,9.65753-11.90118,16.2793-23.871,32.51-35.575,48.92676a78.70616,78.70616,0,0,1-23.3438,21.51564c-10.39075,6.37091-21.42959,9.81617-33.75406,6.72648a7.85978,7.85978,0,0,0-2.43118.174,19.759,19.759,0,0,0,3.419,14.56549c2.9742,4.44312,8.06174,5.08055,12.04356,6.96569.78111,2.31355-.59027,3.12266-1.75413,3.83237-11.20749,6.83928-22.93795,8.98439-35.44349,3.77368-1.049-.43926-2.13044-.8121-3.21448-1.155-.22758-.07295-.52954.08964-.87254.15494-1.505,1.16377-.61814,2.54222-.18344,3.832,3.21883,9.55754,9.025,16.82665,19,19.65678,8.85268,2.5093,17.67866,2.06816,26.09125-2.17092A72.55511,72.55511,0,0,0,479.033,232.11969a153.59257,153.59257,0,0,0,20.64174-25.47078c19.15051-29.03735,32.903-60.67464,44.65518-93.26046C544.59838,112.63815,544.4431,111.73453,544.595,108.81646Z" fill="none" stroke="#333" stroke-miterlimit="4.00141" stroke-width="1.00035"/><path d="M529.82874,265.75554a55.26841,55.26841,0,0,0,25.19618-6.41365,40.50876,40.50876,0,0,0,17.51157-17.39168c2.89087-5.50317,4.34371-11.01406,2.598-17.38764-1.89729-6.92738-2.728-14.13783-4.35952-21.14757-3.983-17.10413-3.9685-34.18246-1.04611-51.47207,3.48409-20.61407,10.44121-40.07471,18.32389-59.28584a20.954,20.954,0,0,0,1.941-6.71058c-.90511,1.204-1.90039,2.35026-2.70261,3.61773a172.36093,172.36093,0,0,0-22.666,55.73816A292.20733,292.20733,0,0,0,558.6928,188.067c-.76769,11.2072-2.16624,22.37254-3.36,33.54857-.32854,3.07817-.68159,6.22418-3.32627,8.86427-3.24533-16.74619-4.43149-67.41414,13.07176-115.87918-2.25649-.16053-2.27763,1.86182-2.91638,3.04866-14.79475,27.453-21.80327,56.84987-21.89485,87.97615-.03187,11.25452-.31922,22.50977-2.94721,33.527-1.60036,6.70928-3.457,13.35814-5.262,20.01467C531.5376,261.08039,530.79333,262.92786,529.82874,265.75554Z" fill="none" stroke="#333" stroke-miterlimit="4.00141" stroke-width="1.00035"/><path d="M285.76888,314.15585c.16458-2.16112-1.47454-2.9246-2.96041-3.78428-6.22324-3.60552-12.60245-6.96674-18.65037-10.8426-10.94293-7.0186-20.70811-15.55256-30.25546-24.34565a139.056,139.056,0,0,0-44.26381-28.01184c-3.74812-1.44824-7.67282-2.42984-11.48048-3.73494-1.796-.61737-4.03582-.5206-5.31278-3.27664,12.3415-1.953,22.9371,3.598,33.88232,6.80123,1.464-1.83706-.082-2.755-.7882-3.75535-2.15666-3.06027-4.256-6.18168-6.669-9.03294a35.75661,35.75661,0,0,0-43.0864-9.52614,81.0287,81.0287,0,0,0-21.017,14.41643,44.64487,44.64487,0,0,0,4.33916,4.1225c8.49536,6.14091,18.02349,10.14585,27.99083,13.199,2.12672.65262,4.60821.68563,5.95414,3.48333-5.11884,5.96818-12.24629,11.32393-9.68843,21.64845a25.40818,25.40818,0,0,0,3.36435-1.58988c7.5135-5.19043,15.93907-6.29147,24.7607-5.57185a83.57415,83.57415,0,0,1,24.18382,6.14714,174.062,174.062,0,0,1,29.1565,14.97558,148.38219,148.38219,0,0,0,40.67323,18.57217Z" fill="none" stroke="#333" stroke-miterlimit="4.00141" stroke-width="1.00035"/></svg>